<svg version="1.1" id="Layer_1" xmlns="http://www.w3.org/2000/svg" xmlns:xlink="http://www.w3.org/1999/xlink" x="0px" y="0px"
	 width="100%" viewBox="0 0 4024 4024" enable-background="new 0 0 4024 4024" xml:space="preserve">
<path fill="#0C342C" opacity="1.000000" stroke="none" 
	d="
M2552.000000,4026.000000 
	C1701.333374,4026.000000 851.666687,4026.000000 2.000000,4026.000000 
	C2.000000,2684.666748 2.000000,1343.333374 2.000000,2.000000 
	C1343.333374,2.000000 2684.666748,2.000000 4026.000000,2.000000 
	C4026.000000,1343.333374 4026.000000,2684.666748 4026.000000,4026.000000 
	C3535.000000,4026.000000 3044.000000,4026.000000 2552.000000,4026.000000 
M2483.000000,1001.912842 
	C2418.019287,1002.224487 2353.039062,1002.662781 2288.058105,1002.821472 
	C2153.726562,1003.149475 2019.394409,1003.573853 1885.062988,1003.463745 
	C1819.530029,1003.409973 1755.438721,1012.812134 1693.117065,1032.475342 
	C1544.649658,1079.318726 1424.729980,1165.010498 1339.043335,1296.292725 
	C1284.889648,1379.262207 1254.593018,1470.406250 1248.561401,1569.185669 
	C1245.757202,1615.107178 1247.785034,1661.058716 1253.574341,1706.872803 
	C1262.841919,1780.211792 1284.935303,1849.012939 1322.029175,1913.084106 
	C1352.554077,1965.808838 1389.256836,2013.157471 1437.803345,2050.610596 
	C1451.785400,2061.397461 1465.685059,2072.311279 1480.001953,2082.641113 
	C1542.244507,2127.550049 1608.320190,2164.961182 1682.666870,2186.335205 
	C1722.661865,2197.833740 1762.439819,2210.085693 1802.338135,2221.922119 
	C1859.204590,2238.792236 1915.492920,2257.259033 1969.405640,2282.286865 
	C1986.043945,2290.010986 2002.329956,2298.380615 2016.949829,2309.640137 
	C2042.328857,2329.185547 2059.438965,2354.067871 2062.823975,2386.331787 
	C2064.335449,2400.735107 2063.443359,2415.681885 2061.524902,2430.100342 
	C2055.267578,2477.128662 2032.550049,2512.044189 1986.859985,2530.434082 
	C1952.273926,2544.354736 1916.411499,2552.339111 1879.825806,2558.291748 
	C1853.309570,2562.605957 1826.631714,2561.669922 1800.046753,2561.802490 
	C1659.383179,2562.503662 1518.716309,2562.583740 1378.050659,2562.914551 
	C1261.051636,2563.189941 1144.052734,2563.504395 1027.053711,2563.827881 
	C1013.165894,2563.866455 1012.091003,2564.680664 1007.298340,2577.335449 
	C1006.944519,2578.269531 1006.551208,2579.188965 1006.204956,2580.125732 
	C959.679382,2705.987061 913.150818,2831.846924 866.640747,2957.713623 
	C860.293518,2974.890625 853.881165,2992.046387 847.812195,3009.322021 
	C844.912354,3017.576660 847.520874,3021.235840 856.198364,3021.837891 
	C860.843445,3022.159668 865.527710,3021.941895 870.194214,3021.925049 
	C1197.177246,3020.748535 1524.159668,3019.316895 1851.143799,3018.584229 
	C1922.139648,3018.425293 1992.180786,3011.600586 2061.306641,2995.705811 
	C2151.733398,2974.912354 2237.020996,2941.441162 2313.439941,2888.182617 
	C2475.686279,2775.108398 2556.796143,2617.913574 2563.168701,2421.450928 
	C2565.393066,2352.882812 2556.929443,2285.069580 2541.864990,2218.153809 
	C2532.109863,2174.822754 2518.781494,2132.627686 2499.285645,2092.604980 
	C2456.786377,2005.359497 2392.118408,1938.202148 2310.727783,1886.646973 
	C2248.690918,1847.351074 2181.457031,1819.266724 2111.390869,1798.007446 
	C2067.110107,1784.571777 2022.335083,1772.773071 1977.879883,1759.901245 
	C1937.559692,1748.226440 1897.544434,1735.561157 1859.356567,1717.885010 
	C1826.522705,1702.686890 1797.367432,1682.296143 1775.909912,1652.778809 
	C1754.533203,1623.372681 1746.564209,1590.125244 1754.167603,1554.296509 
	C1760.704224,1523.494263 1778.614258,1499.954712 1804.762939,1482.689941 
	C1828.435669,1467.059692 1854.611816,1457.662354 1882.225708,1451.747314 
	C1902.621338,1447.378296 1923.165894,1447.802368 1943.869263,1447.778687 
	C2075.179443,1447.628906 2206.488525,1446.816284 2337.798340,1446.448853 
	C2473.130859,1446.070190 2608.463623,1445.949829 2743.796387,1445.714966 
	C2746.462891,1445.710327 2749.136230,1445.803711 2751.794922,1445.651245 
	C2760.988281,1445.123901 2763.674805,1442.531494 2763.945801,1433.494629 
	C2764.145508,1426.834229 2763.973145,1420.162720 2763.962402,1413.496094 
	C2763.931396,1394.482056 2763.357666,1393.875488 2744.271484,1393.907227 
	C2631.938721,1394.094482 2519.605957,1394.301025 2407.273193,1394.494995 
	C2403.940674,1394.500732 2400.607910,1394.426514 2397.275391,1394.406738 
	C2391.944092,1394.375000 2389.325439,1391.493408 2389.111084,1386.373779 
	C2388.902344,1381.381714 2388.872070,1376.380249 2388.854492,1371.382568 
	C2388.790527,1353.265503 2388.805176,1353.244385 2407.228271,1353.198730 
	C2568.560059,1352.799316 2729.892090,1352.408203 2891.223877,1352.013916 
	C2897.223877,1351.999268 2903.227051,1352.099365 2909.222900,1351.930786 
	C2919.084229,1351.653564 2921.740479,1349.119019 2921.966553,1339.453613 
	C2922.161377,1331.125122 2922.007812,1322.787964 2921.975586,1314.454834 
	C2921.895996,1293.908691 2921.772705,1293.801514 2901.339111,1293.838745 
	C2756.006592,1294.103882 2610.674316,1294.365601 2465.341797,1294.624023 
	C2462.342041,1294.629395 2459.330322,1294.748901 2456.345215,1294.528564 
	C2449.242432,1294.004150 2447.782227,1292.624878 2447.449463,1285.294800 
	C2447.147217,1278.640625 2447.210205,1271.963135 2447.314697,1265.299072 
	C2447.480957,1254.709229 2448.714600,1253.582397 2459.680176,1253.328125 
	C2461.346191,1253.289429 2463.013428,1253.309082 2464.680176,1253.304199 
	C2510.679688,1253.169800 2556.679199,1253.037598 2602.678711,1252.900757 
	C2640.011719,1252.789795 2677.344727,1252.692627 2714.677734,1252.551147 
	C2731.755859,1252.486450 2732.479736,1251.704712 2732.496582,1234.197144 
	C2732.502197,1228.530518 2732.461914,1222.863892 2732.453613,1217.197266 
	C2732.420898,1194.285889 2732.422607,1194.260864 2709.989014,1194.323486 
	C2603.323486,1194.621582 2496.658203,1194.936890 2389.992676,1195.230957 
	C2386.330078,1195.241089 2382.658203,1195.223022 2379.006348,1194.979736 
	C2374.318604,1194.667480 2371.681396,1192.129150 2371.586670,1187.299927 
	C2371.475586,1181.635742 2371.376465,1175.970825 2371.346680,1170.305786 
	C2371.260498,1153.971191 2371.441895,1153.799438 2388.156494,1153.752319 
	C2510.155273,1153.408325 2632.154053,1153.068726 2754.152832,1152.719482 
	C2757.484619,1152.709961 2760.841309,1152.844971 2764.142090,1152.495239 
	C2770.527344,1151.818604 2773.291016,1149.463867 2773.513672,1143.003052 
	C2773.915527,1131.353271 2773.920410,1119.666138 2773.463135,1108.019287 
	C2773.196045,1101.211304 2770.114746,1098.703491 2763.282715,1098.133301 
	C2760.302002,1097.884644 2757.286621,1098.024780 2754.287109,1098.029297 
	C2693.954102,1098.121338 2633.621094,1098.221680 2573.288086,1098.310059 
	C2570.289307,1098.314453 2567.288574,1098.276367 2564.291992,1098.171265 
	C2559.919922,1098.018188 2557.449219,1095.571533 2557.148682,1091.351074 
	C2556.794434,1086.373291 2556.777344,1081.365601 2556.767090,1076.370605 
	C2556.727783,1056.978271 2556.750000,1056.928833 2575.927490,1056.880981 
	C2676.260010,1056.630127 2776.592773,1056.406982 2876.925293,1056.171143 
	C2881.258301,1056.161011 2885.603760,1056.315308 2889.921875,1056.047607 
	C2897.580078,1055.572510 2900.098389,1053.272339 2900.411133,1045.646973 
	C2900.766113,1036.995117 2900.556396,1028.318237 2900.523682,1019.652527 
	C2900.456787,1001.869202 2899.476807,1000.891357 2881.997070,1000.933838 
	C2749.664795,1001.255371 2617.332275,1001.579834 2483.000000,1001.912842 
M2929.002441,1393.495361 
	C2908.010010,1393.554443 2887.016602,1393.494873 2866.025879,1393.725830 
	C2856.366943,1393.832031 2853.974854,1396.208374 2853.764648,1405.437622 
	C2853.552002,1414.762451 2853.566650,1424.100342 2853.790039,1433.425049 
	C2854.000732,1442.227905 2856.408936,1444.594727 2865.063477,1445.287964 
	C2867.051514,1445.447144 2869.059570,1445.376465 2871.058594,1445.371582 
	C2936.034668,1445.214722 3001.010498,1445.054199 3065.986572,1444.887573 
	C3068.318359,1444.881592 3070.661621,1444.942139 3072.979980,1444.743164 
	C3081.140381,1444.042480 3083.584229,1441.710815 3083.834473,1433.517090 
	C3084.098633,1424.861694 3083.977051,1416.191040 3083.876221,1407.528809 
	C3083.737793,1395.658569 3081.567383,1393.480225 3069.951172,1393.187500 
	C3067.953125,1393.137085 3065.952881,1393.168335 3063.953613,1393.173096 
	C3019.636475,1393.278442 2975.319580,1393.385376 2929.002441,1393.495361 
M3186.001465,1040.431763 
	C3185.993164,1032.770020 3186.004150,1025.108032 3185.972412,1017.446350 
	C3185.907227,1001.734802 3184.625000,1000.431641 3168.840820,1000.444336 
	C3116.208496,1000.486633 3063.575928,1000.559692 3010.943604,1000.621826 
	C3004.614502,1000.629333 2998.276367,1000.432922 2991.958252,1000.701477 
	C2982.774414,1001.091858 2980.188721,1003.726990 2980.023926,1012.939575 
	C2979.844971,1022.929626 2979.884766,1032.927856 2980.051758,1042.918701 
	C2980.224121,1053.221436 2982.855713,1055.957520 2993.211670,1055.956299 
	C3052.839600,1055.949219 3112.467529,1055.864990 3172.094971,1055.682007 
	C3183.250244,1055.647705 3185.076660,1053.618408 3186.001465,1040.431763 
M2853.900146,1097.874756 
	C2844.583252,1099.612793 2842.807129,1101.175659 2842.558105,1109.768555 
	C2842.269043,1119.748535 2842.299561,1129.750000 2842.584717,1139.730957 
	C2842.876953,1149.956055 2845.453857,1152.457886 2856.091553,1152.454956 
	C2910.364258,1152.440552 2964.637207,1152.322021 3018.909424,1152.106445 
	C3028.715088,1152.067505 3031.429932,1149.303589 3031.683594,1139.669678 
	C3031.911133,1131.018921 3031.767334,1122.356567 3031.695557,1113.700195 
	C3031.576416,1099.365723 3029.835205,1097.658691 3015.541992,1097.563354 
	C3014.876221,1097.558960 3014.210205,1097.562744 3013.544434,1097.563965 
	C2960.936523,1097.659668 2908.328369,1097.755493 2853.900146,1097.874756 
M2931.723389,1252.105591 
	C2971.365234,1252.063599 3011.006836,1252.024658 3050.648682,1251.974243 
	C3053.645996,1251.970459 3056.665527,1252.101929 3059.636230,1251.795166 
	C3066.414551,1251.095093 3069.402100,1248.472046 3069.583252,1241.659180 
	C3069.919922,1229.011841 3069.912598,1216.337769 3069.478271,1203.694458 
	C3069.243164,1196.847412 3066.234863,1194.307617 3059.367432,1193.861328 
	C3054.722168,1193.559570 3050.044189,1193.739136 3045.380859,1193.745850 
	C3008.071045,1193.798950 2970.761230,1193.817749 2933.451660,1193.947266 
	C2920.724609,1193.991455 2918.469238,1196.341919 2918.383057,1209.243164 
	C2918.314209,1219.568970 2918.212891,1229.903564 2918.550049,1240.220337 
	C2918.832275,1248.854492 2920.585449,1250.383911 2931.723389,1252.105591 
M3159.463623,1330.672607 
	C3159.440918,1322.356567 3159.630127,1314.032959 3159.340332,1305.726318 
	C3159.000244,1295.979492 3156.466797,1293.680054 3146.538574,1293.274170 
	C3143.881836,1293.165527 3141.217285,1293.235840 3138.556152,1293.244141 
	C3114.605713,1293.318726 3090.655518,1293.390015 3066.705078,1293.479492 
	C3056.393799,1293.518066 3046.073975,1293.365356 3035.773926,1293.736694 
	C3028.524658,1293.997803 3025.840088,1296.389282 3025.659912,1303.333740 
	C3025.323975,1316.294434 3025.382080,1329.279907 3025.789795,1342.238892 
	C3025.988037,1348.546509 3028.785645,1350.879272 3035.263672,1351.595093 
	C3038.225342,1351.922607 3041.243408,1351.782104 3044.236084,1351.778564 
	C3076.170166,1351.740356 3108.104248,1351.690552 3140.038330,1351.636108 
	C3158.179932,1351.605225 3159.372803,1350.427002 3159.463623,1330.672607 
M2846.830078,1194.078003 
	C2831.219971,1194.109375 2815.607422,1193.978760 2800.000977,1194.233398 
	C2790.802002,1194.383423 2788.053223,1197.168945 2787.898926,1206.213379 
	C2787.700195,1217.833984 2787.707764,1229.465210 2787.974121,1241.083984 
	C2788.155273,1248.988281 2790.592529,1252.037720 2797.707764,1252.128174 
	C2818.626465,1252.394287 2839.553711,1252.327881 2860.472412,1252.021484 
	C2866.865723,1251.927856 2869.732422,1249.098511 2869.906494,1242.794800 
	C2870.263916,1229.853882 2870.256836,1216.888184 2869.884277,1203.947632 
	C2869.691895,1197.265747 2866.643799,1194.727295 2859.721436,1194.191528 
	C2856.088379,1193.910278 2852.418945,1194.100708 2846.830078,1194.078003 
M3150.780518,1150.453857 
	C3152.325928,1147.682617 3155.084229,1144.962646 3155.204102,1142.130981 
	C3155.694580,1130.540894 3155.708984,1118.903320 3155.239990,1107.309814 
	C3154.952148,1100.193726 3152.338379,1097.626343 3145.299561,1097.474609 
	C3130.375977,1097.152710 3115.434326,1097.214233 3100.510254,1097.565552 
	C3093.383545,1097.733398 3090.635986,1100.324097 3090.400391,1107.211792 
	C3090.003662,1118.811279 3090.027588,1130.445923 3090.450928,1142.044678 
	C3090.697754,1148.806519 3093.761230,1151.836670 3100.526123,1151.870850 
	C3116.760010,1151.952881 3132.996582,1151.466064 3150.780518,1150.453857 
z"/>
<path fill="#FEFFFF" opacity="1.000000" stroke="none" 
	d="
M2484.000000,1001.908081 
	C2617.332275,1001.579834 2749.664795,1001.255371 2881.997070,1000.933838 
	C2899.476807,1000.891357 2900.456787,1001.869202 2900.523682,1019.652527 
	C2900.556396,1028.318237 2900.766113,1036.995117 2900.411133,1045.646973 
	C2900.098389,1053.272339 2897.580078,1055.572510 2889.921875,1056.047607 
	C2885.603760,1056.315308 2881.258301,1056.161011 2876.925293,1056.171143 
	C2776.592773,1056.406982 2676.260010,1056.630127 2575.927490,1056.880981 
	C2556.750000,1056.928833 2556.727783,1056.978271 2556.767090,1076.370605 
	C2556.777344,1081.365601 2556.794434,1086.373291 2557.148682,1091.351074 
	C2557.449219,1095.571533 2559.919922,1098.018188 2564.291992,1098.171265 
	C2567.288574,1098.276367 2570.289307,1098.314453 2573.288086,1098.310059 
	C2633.621094,1098.221680 2693.954102,1098.121338 2754.287109,1098.029297 
	C2757.286621,1098.024780 2760.302002,1097.884644 2763.282715,1098.133301 
	C2770.114746,1098.703491 2773.196045,1101.211304 2773.463135,1108.019287 
	C2773.920410,1119.666138 2773.915527,1131.353271 2773.513672,1143.003052 
	C2773.291016,1149.463867 2770.527344,1151.818604 2764.142090,1152.495239 
	C2760.841309,1152.844971 2757.484619,1152.709961 2754.152832,1152.719482 
	C2632.154053,1153.068726 2510.155273,1153.408325 2388.156494,1153.752319 
	C2371.441895,1153.799438 2371.260498,1153.971191 2371.346680,1170.305786 
	C2371.376465,1175.970825 2371.475586,1181.635742 2371.586670,1187.299927 
	C2371.681396,1192.129150 2374.318604,1194.667480 2379.006348,1194.979736 
	C2382.658203,1195.223022 2386.330078,1195.241089 2389.992676,1195.230957 
	C2496.658203,1194.936890 2603.323486,1194.621582 2709.989014,1194.323486 
	C2732.422607,1194.260864 2732.420898,1194.285889 2732.453613,1217.197266 
	C2732.461914,1222.863892 2732.502197,1228.530518 2732.496582,1234.197144 
	C2732.479736,1251.704712 2731.755859,1252.486450 2714.677734,1252.551147 
	C2677.344727,1252.692627 2640.011719,1252.789795 2602.678711,1252.900757 
	C2556.679199,1253.037598 2510.679688,1253.169800 2464.680176,1253.304199 
	C2463.013428,1253.309082 2461.346191,1253.289429 2459.680176,1253.328125 
	C2448.714600,1253.582397 2447.480957,1254.709229 2447.314697,1265.299072 
	C2447.210205,1271.963135 2447.147217,1278.640625 2447.449463,1285.294800 
	C2447.782227,1292.624878 2449.242432,1294.004150 2456.345215,1294.528564 
	C2459.330322,1294.748901 2462.342041,1294.629395 2465.341797,1294.624023 
	C2610.674316,1294.365601 2756.006592,1294.103882 2901.339111,1293.838745 
	C2921.772705,1293.801514 2921.895996,1293.908691 2921.975586,1314.454834 
	C2922.007812,1322.787964 2922.161377,1331.125122 2921.966553,1339.453613 
	C2921.740479,1349.119019 2919.084229,1351.653564 2909.222900,1351.930786 
	C2903.227051,1352.099365 2897.223877,1351.999268 2891.223877,1352.013916 
	C2729.892090,1352.408203 2568.560059,1352.799316 2407.228271,1353.198730 
	C2388.805176,1353.244385 2388.790527,1353.265503 2388.854492,1371.382568 
	C2388.872070,1376.380249 2388.902344,1381.381714 2389.111084,1386.373779 
	C2389.325439,1391.493408 2391.944092,1394.375000 2397.275391,1394.406738 
	C2400.607910,1394.426514 2403.940674,1394.500732 2407.273193,1394.494995 
	C2519.605957,1394.301025 2631.938721,1394.094482 2744.271484,1393.907227 
	C2763.357666,1393.875488 2763.931396,1394.482056 2763.962402,1413.496094 
	C2763.973145,1420.162720 2764.145508,1426.834229 2763.945801,1433.494629 
	C2763.674805,1442.531494 2760.988281,1445.123901 2751.794922,1445.651245 
	C2749.136230,1445.803711 2746.462891,1445.710327 2743.796387,1445.714966 
	C2608.463623,1445.949829 2473.130859,1446.070190 2337.798340,1446.448853 
	C2206.488525,1446.816284 2075.179443,1447.628906 1943.869263,1447.778687 
	C1923.165894,1447.802368 1902.621338,1447.378296 1882.225708,1451.747314 
	C1854.611816,1457.662354 1828.435669,1467.059692 1804.762939,1482.689941 
	C1778.614258,1499.954712 1760.704224,1523.494263 1754.167603,1554.296509 
	C1746.564209,1590.125244 1754.533203,1623.372681 1775.909912,1652.778809 
	C1797.367432,1682.296143 1826.522705,1702.686890 1859.356567,1717.885010 
	C1897.544434,1735.561157 1937.559692,1748.226440 1977.879883,1759.901245 
	C2022.335083,1772.773071 2067.110107,1784.571777 2111.390869,1798.007446 
	C2181.457031,1819.266724 2248.690918,1847.351074 2310.727783,1886.646973 
	C2392.118408,1938.202148 2456.786377,2005.359497 2499.285645,2092.604980 
	C2518.781494,2132.627686 2532.109863,2174.822754 2541.864990,2218.153809 
	C2556.929443,2285.069580 2565.393066,2352.882812 2563.168701,2421.450928 
	C2556.796143,2617.913574 2475.686279,2775.108398 2313.439941,2888.182617 
	C2237.020996,2941.441162 2151.733398,2974.912354 2061.306641,2995.705811 
	C1992.180786,3011.600586 1922.139648,3018.425293 1851.143799,3018.584229 
	C1524.159668,3019.316895 1197.177246,3020.748535 870.194214,3021.925049 
	C865.527710,3021.941895 860.843445,3022.159668 856.198364,3021.837891 
	C847.520874,3021.235840 844.912354,3017.576660 847.812195,3009.322021 
	C853.881165,2992.046387 860.293518,2974.890625 866.640747,2957.713623 
	C913.150818,2831.846924 959.679382,2705.987061 1006.204956,2580.125732 
	C1006.551208,2579.188965 1006.944519,2578.269531 1007.298340,2577.335449 
	C1012.091003,2564.680664 1013.165894,2563.866455 1027.053711,2563.827881 
	C1144.052734,2563.504395 1261.051636,2563.189941 1378.050659,2562.914551 
	C1518.716309,2562.583740 1659.383179,2562.503662 1800.046753,2561.802490 
	C1826.631714,2561.669922 1853.309570,2562.605957 1879.825806,2558.291748 
	C1916.411499,2552.339111 1952.273926,2544.354736 1986.859985,2530.434082 
	C2032.550049,2512.044189 2055.267578,2477.128662 2061.524902,2430.100342 
	C2063.443359,2415.681885 2064.335449,2400.735107 2062.823975,2386.331787 
	C2059.438965,2354.067871 2042.328857,2329.185547 2016.949829,2309.640137 
	C2002.329956,2298.380615 1986.043945,2290.010986 1969.405640,2282.286865 
	C1915.492920,2257.259033 1859.204590,2238.792236 1802.338135,2221.922119 
	C1762.439819,2210.085693 1722.661865,2197.833740 1682.666870,2186.335205 
	C1608.320190,2164.961182 1542.244507,2127.550049 1480.001953,2082.641113 
	C1465.685059,2072.311279 1451.785400,2061.397461 1437.803345,2050.610596 
	C1389.256836,2013.157471 1352.554077,1965.808838 1322.029175,1913.084106 
	C1284.935303,1849.012939 1262.841919,1780.211792 1253.574341,1706.872803 
	C1247.785034,1661.058716 1245.757202,1615.107178 1248.561401,1569.185669 
	C1254.593018,1470.406250 1284.889648,1379.262207 1339.043335,1296.292725 
	C1424.729980,1165.010498 1544.649658,1079.318726 1693.117065,1032.475342 
	C1755.438721,1012.812134 1819.530029,1003.409973 1885.062988,1003.463745 
	C2019.394409,1003.573853 2153.726562,1003.149475 2288.058105,1002.821472 
	C2353.039062,1002.662781 2418.019287,1002.224487 2484.000000,1001.908081 
z"/>
<path fill="#FBFCFC" opacity="1.000000" stroke="none" 
	d="
M2930.002441,1393.493652 
	C2975.319580,1393.385376 3019.636475,1393.278442 3063.953613,1393.173096 
	C3065.952881,1393.168335 3067.953125,1393.137085 3069.951172,1393.187500 
	C3081.567383,1393.480225 3083.737793,1395.658569 3083.876221,1407.528809 
	C3083.977051,1416.191040 3084.098633,1424.861694 3083.834473,1433.517090 
	C3083.584229,1441.710815 3081.140381,1444.042480 3072.979980,1444.743164 
	C3070.661621,1444.942139 3068.318359,1444.881592 3065.986572,1444.887573 
	C3001.010498,1445.054199 2936.034668,1445.214722 2871.058594,1445.371582 
	C2869.059570,1445.376465 2867.051514,1445.447144 2865.063477,1445.287964 
	C2856.408936,1444.594727 2854.000732,1442.227905 2853.790039,1433.425049 
	C2853.566650,1424.100342 2853.552002,1414.762451 2853.764648,1405.437622 
	C2853.974854,1396.208374 2856.366943,1393.832031 2866.025879,1393.725830 
	C2887.016602,1393.494873 2908.010010,1393.554443 2930.002441,1393.493652 
z"/>
<path fill="#FAFBFA" opacity="1.000000" stroke="none" 
	d="
M3186.000000,1041.353271 
	C3185.076660,1053.618408 3183.250244,1055.647705 3172.094971,1055.682007 
	C3112.467529,1055.864990 3052.839600,1055.949219 2993.211670,1055.956299 
	C2982.855713,1055.957520 2980.224121,1053.221436 2980.051758,1042.918701 
	C2979.884766,1032.927856 2979.844971,1022.929626 2980.023926,1012.939575 
	C2980.188721,1003.726990 2982.774414,1001.091858 2991.958252,1000.701477 
	C2998.276367,1000.432922 3004.614502,1000.629333 3010.943604,1000.621826 
	C3063.575928,1000.559692 3116.208496,1000.486633 3168.840820,1000.444336 
	C3184.625000,1000.431641 3185.907227,1001.734802 3185.972412,1017.446350 
	C3186.004150,1025.108032 3185.993164,1032.770020 3186.000000,1041.353271 
z"/>
<path fill="#FCFDFD" opacity="1.000000" stroke="none" 
	d="
M2854.810303,1097.863037 
	C2908.328369,1097.755493 2960.936523,1097.659668 3013.544434,1097.563965 
	C3014.210205,1097.562744 3014.876221,1097.558960 3015.541992,1097.563354 
	C3029.835205,1097.658691 3031.576416,1099.365723 3031.695557,1113.700195 
	C3031.767334,1122.356567 3031.911133,1131.018921 3031.683594,1139.669678 
	C3031.429932,1149.303589 3028.715088,1152.067505 3018.909424,1152.106445 
	C2964.637207,1152.322021 2910.364258,1152.440552 2856.091553,1152.454956 
	C2845.453857,1152.457886 2842.876953,1149.956055 2842.584717,1139.730957 
	C2842.299561,1129.750000 2842.269043,1119.748535 2842.558105,1109.768555 
	C2842.807129,1101.175659 2844.583252,1099.612793 2854.810303,1097.863037 
z"/>
<path fill="#FCFCFC" opacity="1.000000" stroke="none" 
	d="
M2930.818359,1252.100464 
	C2920.585449,1250.383911 2918.832275,1248.854492 2918.550049,1240.220337 
	C2918.212891,1229.903564 2918.314209,1219.568970 2918.383057,1209.243164 
	C2918.469238,1196.341919 2920.724609,1193.991455 2933.451660,1193.947266 
	C2970.761230,1193.817749 3008.071045,1193.798950 3045.380859,1193.745850 
	C3050.044189,1193.739136 3054.722168,1193.559570 3059.367432,1193.861328 
	C3066.234863,1194.307617 3069.243164,1196.847412 3069.478271,1203.694458 
	C3069.912598,1216.337769 3069.919922,1229.011841 3069.583252,1241.659180 
	C3069.402100,1248.472046 3066.414551,1251.095093 3059.636230,1251.795166 
	C3056.665527,1252.101929 3053.645996,1251.970459 3050.648682,1251.974243 
	C3011.006836,1252.024658 2971.365234,1252.063599 2930.818359,1252.100464 
z"/>
<path fill="#FBFCFC" opacity="1.000000" stroke="none" 
	d="
M3159.463379,1331.614136 
	C3159.372803,1350.427002 3158.179932,1351.605225 3140.038330,1351.636108 
	C3108.104248,1351.690552 3076.170166,1351.740356 3044.236084,1351.778564 
	C3041.243408,1351.782104 3038.225342,1351.922607 3035.263672,1351.595093 
	C3028.785645,1350.879272 3025.988037,1348.546509 3025.789795,1342.238892 
	C3025.382080,1329.279907 3025.323975,1316.294434 3025.659912,1303.333740 
	C3025.840088,1296.389282 3028.524658,1293.997803 3035.773926,1293.736694 
	C3046.073975,1293.365356 3056.393799,1293.518066 3066.705078,1293.479492 
	C3090.655518,1293.390015 3114.605713,1293.318726 3138.556152,1293.244141 
	C3141.217285,1293.235840 3143.881836,1293.165527 3146.538574,1293.274170 
	C3156.466797,1293.680054 3159.000244,1295.979492 3159.340332,1305.726318 
	C3159.630127,1314.032959 3159.440918,1322.356567 3159.463379,1331.614136 
z"/>
<path fill="#FBFCFC" opacity="1.000000" stroke="none" 
	d="
M2847.797852,1194.078125 
	C2852.418945,1194.100708 2856.088379,1193.910278 2859.721436,1194.191528 
	C2866.643799,1194.727295 2869.691895,1197.265747 2869.884277,1203.947632 
	C2870.256836,1216.888184 2870.263916,1229.853882 2869.906494,1242.794800 
	C2869.732422,1249.098511 2866.865723,1251.927856 2860.472412,1252.021484 
	C2839.553711,1252.327881 2818.626465,1252.394287 2797.707764,1252.128174 
	C2790.592529,1252.037720 2788.155273,1248.988281 2787.974121,1241.083984 
	C2787.707764,1229.465210 2787.700195,1217.833984 2787.898926,1206.213379 
	C2788.053223,1197.168945 2790.802002,1194.383423 2800.000977,1194.233398 
	C2815.607422,1193.978760 2831.219971,1194.109375 2847.797852,1194.078125 
z"/>
<path fill="#FAFBFA" opacity="1.000000" stroke="none" 
	d="
M3150.006348,1150.831299 
	C3132.996582,1151.466064 3116.760010,1151.952881 3100.526123,1151.870850 
	C3093.761230,1151.836670 3090.697754,1148.806519 3090.450928,1142.044678 
	C3090.027588,1130.445923 3090.003662,1118.811279 3090.400391,1107.211792 
	C3090.635986,1100.324097 3093.383545,1097.733398 3100.510254,1097.565552 
	C3115.434326,1097.214233 3130.375977,1097.152710 3145.299561,1097.474609 
	C3152.338379,1097.626343 3154.952148,1100.193726 3155.239990,1107.309814 
	C3155.708984,1118.903320 3155.694580,1130.540894 3155.204102,1142.130981 
	C3155.084229,1144.962646 3152.325928,1147.682617 3150.006348,1150.831299 
z"/>
</svg>